<?xml version="1.0" encoding="UTF-8"?>
<svg version="1.1" viewBox="0 0 2048 404" width="1037" height="205" xmlns="http://www.w3.org/2000/svg">
<path transform="translate(1141,72)" d="m0 0h21l11 3 6 5 4 8 1 12v82l2 1 2-4 12-10 11-5 4-1h24l16 4 14 7 10 8 11 11 10 15 7 16 3 15 1 6 1 52h12l18 3 2 1-5-12-3-11-1-6v-30l4-15 7-16 7-10 9-11 7-7 13-10 14-7 11-3 8-1h12l12 2 12 5 10 7 3 4 6-11 7-5 7-2h25l10 3 6 5 3 6 1 4 1 91 9-2 17-7h2v-153l3-11 6-7 6-3 5-1h23l11 3 6 4 10 12 13 18 16 21 10 14 16 21 10 14 9 11 2-4 16-7 7-2 1-84 2-8 5-8 8-4 4-1h23l12 3 6 4 3 6 2 10 1 55 16-8 39-16 15-6 15-4 13-2h19l19 3 21 7 14 8 12 9 10 9 11 14 8 14 5 11 5 16 3 20v12l-3 20-4 15-10 21-11 14-8 9-11 9-14 9-19 8-21 5-9 1h-17l-57-6-45-5-7-1-7 3-6 1h-23l-9-3-11-8h-7l-16-2-37-4-43-5-3 10-6 7-9 4-5 1h-23l-11-4-6-7-3-9-1-10h-8l-19-3-1 15-4 10-5 4-9 3-7 1h-10l-14-2-8-4-4-5-2-7-8 7-10 6-16 4h-23l-17-5-14-8-3-2-5 1-40 17-14 5-11 1-10-4-4-2-7-1-18-1-11-4-6-7-2-7-1-77-1-14-6-10-9-6-7-2h-12l-10 3-8 6-6 7-2 4-1 81-2 13-4 6-5 4-11 3h-24l-11-4-5-5-3-8v-249l4-10 8-5zm487 143-2 1 1 10 3 4 10-2-2-4-7-9zm-203 12-11 4-8 7-5 8-2 8v9l3 10 9 10 8 5 9 2h8l11-4 10-9 4-8 1-3v-15l-4-9-7-9-10-5-4-1z" fill="#FCFCFC"/>
<path transform="translate(1141,72)" d="m0 0h21l11 3 6 5 4 8 1 12v82l2 1 2-4 12-10 11-5 4-1h24l16 4 14 7 10 8 11 11 10 15 7 16 3 15 1 6 1 52h12l18 3 2 1-5-12-3-11-1-6v-30l4-15 7-16 7-10 9-11 7-7 13-10 14-7 11-3 8-1h12l12 2 12 5 10 7 3 4 6-11 7-5 7-2h25l10 3 6 5 3 6 1 4 1 91v3 52l-2 15-5 8-8 4-11 2h-10l-14-2-8-4-4-5-2-7-8 7-10 6-16 4h-23l-17-5-14-8-3-2-5 1-40 17-14 5-11 1-10-4-4-2-7-1-18-1-11-4-6-7-2-7-1-77-1-14-6-10-9-6-7-2h-12l-10 3-8 6-6 7-2 4-1 81-2 13-4 6-5 4-11 3h-24l-11-4-5-5-3-8v-249l4-10 8-5zm284 155-11 4-8 7-5 8-2 8v9l3 10 9 10 8 5 9 2h8l11-4 10-9 4-8 1-3v-15l-4-9-7-9-10-5-4-1z" fill="#FDFDFD"/>
<path transform="translate(1892,129)" d="m0 0h19l19 3 21 7 14 8 12 9 10 9 11 14 8 14 5 11 5 16 3 20v12l-3 20-4 15-10 21-11 14-8 9-11 9-14 9-19 8-21 5-9 1h-17l-57-6-45-5-5-1 2-5 4-8 1-8 1-164 8-5 36-15 27-11 15-4z" fill="#BB41A2"/>
<path transform="translate(355,72)" d="m0 0h20l11 3 5 3 4 5 2 6v94l8-7 9-7 11-5 4-1h23l17 4 14 7 11 9 8 8 10 14 6 12 5 15 2 11v95l-4 9-6 5-10 3h-25l-11-4-6-7-2-9-1-82-2-9-6-9-8-5-6-2h-14l-11 4-8 6-6 9-1 5-1 85-3 9-6 5-7 3-5 1h-25l-10-4-5-5-3-8-1-14v-201l1-35 4-8 6-5z" fill="#FDFDFD"/>
<path transform="translate(629,162)" d="m0 0h13l15 3 14 7 6 5 3 3 4-10 8-6 7-2h24l9 2 6 4 5 10 1 4v152l-3 11-7 6-9 3-8 1h-9l-14-2-6-3-6-7-1-6-10 8-8 5-16 4-15 1-14-2-16-6-12-8-13-12-9-10-9-14-5-12-4-15-1-5v-27l4-16 7-16 8-12 9-11 8-7 12-9 14-7 11-3zm10 65-11 4-7 6-5 8-3 11 1 10 4 9 6 7 10 6 9 2h8l9-3 9-7 6-8 2-9v-10l-3-9-6-8-7-6-9-3z" fill="#FDFDFD"/>
<path transform="translate(1415,162)" d="m0 0h12l12 2 12 5 10 7 3 4 6-11 7-5 7-2h25l10 3 6 5 3 6 1 4 1 91v3 52l-2 15-5 8-8 4-11 2h-10l-14-2-8-4-4-5-2-7-8 7-10 6-16 4h-23l-17-5-14-8-5-5-10-9-9-11-7-10-7-14-4-14-1-6v-30l4-15 7-16 7-10 9-11 7-7 13-10 14-7 11-3zm10 65-11 4-8 7-5 8-2 8v9l3 10 9 10 8 5 9 2h8l11-4 10-9 4-8 1-3v-15l-4-9-7-9-10-5-4-1z" fill="#FDFDFD"/>
<path transform="translate(69,87)" d="m0 0h230l8 3 5 6 2 12v11l-2 11-6 7-6 2-8 1h-74l-1 195-3 10-4 5-9 4-4 1h-26l-10-4-5-6-3-9v-196h-82l-8-3-4-4-2-5-1-6v-19l3-9 7-6z" fill="#FDFDFD"/>
<path transform="translate(1007,158)" d="m0 0h21l20 3 17 5 16 8 5 6 1 2v9l-4 10-6 10-5 5-6 4h-9l-21-8-5-1h-26l-5 3-1 4 3 6 9 4 17 3 19 4 19 7 12 7 8 9 7 14 2 12v22l-2 10-5 12-7 10-9 8-12 5-18 5-17 2h-29l-14-2-24-8-16-9-5-4-3-6v-10l4-10 9-14 5-5 5-2h8l10 3 20 11 14 3h15l8-2 3-3v-6l-9-3-27-5-19-7-18-10-10-10-7-14-4-15-1-10v-9l2-12 5-12 6-8 7-7 15-8 17-4z" fill="#FDFDFD"/>
<path transform="translate(871,160)" d="m0 0h15l16 3 12 6 5 8 1 5v12l-4 16-6 11-7 6-8 2-11-1-13-4h-12l-10 4-7 6-3 5-1 5-1 92-3 9-5 5-5 3-8 2h-25l-10-4-5-4-4-11v-155l3-9 5-6 7-3 5-1h24l9 2 8 7 3 6v3l16-12 14-7z" fill="#FDFDFD"/>
<path transform="translate(1641,227)" d="m0 0 5 5 14 18 9 12 16 21 14 19 16 21 14 19 1 3-4-1-51-5-43-5-9-1v-98l3-3 10-4z" fill="#BB41A2"/>
<path transform="translate(1313,297)" d="m0 0h11l18 3 4 2 6 10 8 10 8 9 7 6-3 2-30 13-23 9-10 2-8-1-13-6 1-2 10-3 6-4 4-7 1-5 1-36z" fill="#B225D6"/>
<path transform="translate(1556,262)" d="m0 0h2l1 16v46l-1 1h-9l-19-3-1-1v-47l4-3z" fill="#BB41A3"/>
<path transform="translate(1727,192)" d="m0 0h1v49l-4-4-15-20-7-9 2-7 16-7z" fill="#BB42A2"/>
<path transform="translate(1556,301)" d="m0 0h1l1 21-6-1-1-4 3-4-1-2v-7z" fill="#B224D9"/>
<path transform="translate(1313,297)" d="m0 0h11l13 2v1h-15l-9-2z" fill="#BC45A4"/>
</svg>
